# xmcd
#
# Track frame offsets: 
#        150
#        13575
#        22887
#        35660
#        46825
#        59325
#        71250
#        84375
#        95487
#        109937
#        125750
#        137975
#        151762
#        165087
#        175887
#        188925
#        202062
#        213000
#        223675
#        237575
#
# Disc length: 3310 seconds
#
# Revision: 0
# Processed by: cddbd v1.5PL3 Copyright (c) Steve Scherf et al.
# Submitted via: ExactAudioCopy v0.95a5
#
DISCID=130cec14
DTITLE=Tammy Wynette - Legendary Tammy Wynette (disk1)
DYEAR=1900
DGENRE=
TTITLE0=Apartment Number 9
TTITLE1=Your Good Girl's Gonna Go Bad
TTITLE2=Take Me To Your World
TTITLE3=The Ways To Love A Man
TTITLE4=We Sure Can Love Each Other
TTITLE5=He Sure Loves Me All The Way
TTITLE6=I'll See Him Through
TTITLE7=Run, Woman, Run
TTITLE8=You Still Get To Me In My Dreams
TTITLE9=The Wonders You Perform
TTITLE10=Two Story House
TTITLE11=Golden Ring
TTITLE12=We're Gonna Hold On
TTITLE13=Near You
TTITLE14=Southern California
TTITLE15=Let's Build A World Together
TTITLE16=We're Not The Jet Set
TTITLE17=Take Me
TTITLE18=The Ceremony
TTITLE19=We Loved It Away
EXTD=
EXTT0=
EXTT1=
EXTT2=
EXTT3=
EXTT4=
EXTT5=
EXTT6=
EXTT7=
EXTT8=
EXTT9=
EXTT10=
EXTT11=
EXTT12=
EXTT13=
EXTT14=
EXTT15=
EXTT16=
EXTT17=
EXTT18=
EXTT19=
PLAYORDER=
